# xmcd CD database file
#
# Track frame offsets:
#	150
#	18035
#	32003
#	46312
#	60585
#	78484
#	89318
#	100828
#	114356
#	131248
#	143253
#	154550
#	173299
#	189492
#	202375
#
# Disc length: 2853 seconds
#
# Revision: 0
# Processed by: cddbd v1.5.2PL0 Copyright (c) Steve Scherf et al.
# Submitted via: ACXtractor (MTCDDB.DLL V2003.12.21)
#
DISCID=b50b230f
DTITLE=Pete Smith - All About the Bushland
DYEAR=2006
DGENRE=Country
TTITLE0=All About the Bushland
TTITLE1=By a Fire of Gidgee Coal
TTITLE2=A Dusty Old Time Ringer
TTITLE3=The Nulla Nulla Winds
TTITLE4=The Coloured Lad
TTITLE5=The Hobnail Express
TTITLE6=Mt Isa Rodeo
TTITLE7=The Bushman's Yodel
TTITLE8=Things aren't the same on the Land
TTITLE9=The Bushman's Song
TTITLE10=Lights on the Hill
TTITLE11=Camooweal
TTITLE12=Beautiful Queensland
TTITLE13=Leave him in the Longyard
TTITLE14=Walk a Country Mile
EXTD=ID3G:   2 YEAR: 2006
EXTT0=
EXTT1=
EXTT2=
EXTT3=
EXTT4=
EXTT5=
EXTT6=
EXTT7=
EXTT8=
EXTT9=
EXTT10=
EXTT11=
EXTT12=
EXTT13=
EXTT14=
PLAYORDER=
